PathFileType  4	(X/Y/Z) /Users/callumsherry/opencap-sandboxes/opencap-core-sandbox/diagnostics/openpose_swapped
DataRate	CameraRate	NumFrames	NumMarkers	Units	OrigDataRate	OrigDataStartFrame	OrigNumFrames
30.0	30.0	16	20	m	30.0	23	45
Frame#	Time	Neck			RShoulder			RElbow			RWrist			LShoulder			LElbow			LWrist			midHip			RHip			RKnee			RAnkle			LHip			LKnee			LAnkle			LBigToe			LSmallToe			LHeel			RBigToe			RSmallToe			RHeel			
		X1	Y1	Z1	X2	Y2	Z2	X3	Y3	Z3	X4	Y4	Z4	X5	Y5	Z5	X6	Y6	Z6	X7	Y7	Z7	X8	Y8	Z8	X9	Y9	Z9	X10	Y10	Z10	X11	Y11	Z11	X12	Y12	Z12	X13	Y13	Z13	X14	Y14	Z14	X15	Y15	Z15	X16	Y16	Z16	X17	Y17	Z17	X18	Y18	Z18	X19	Y19	Z19	X20	Y20	Z20	

23	0.7333333	-0.5565300	1.4720800	-0.2662700	-0.5413800	1.4694900	-0.0890700	-0.5148700	1.2377900	0.0507000	-0.4293000	1.0562100	0.2209600	-0.5602100	1.4816900	-0.4403200	-0.5516100	1.2405900	-0.5934500	-0.4526300	1.0415600	-0.7082400	-0.4684600	0.8982300	-0.2696600	-0.4951600	0.8964800	-0.1475900	-0.5215500	0.4695100	-0.1462800	-0.5498200	0.1040100	-0.1445700	-0.4465200	0.8939800	-0.3854500	-0.4871900	0.4844300	-0.3781500	-0.5597200	0.0974100	-0.3913500	-0.3796500	0.0449800	-0.4187500	-0.4217300	0.0474000	-0.4701600	-0.5962700	0.0601000	-0.3600600	-0.4037000	0.0443800	-0.1325100	-0.4237900	0.0606500	-0.0774500	-0.5962300	0.0499200	-0.1572900
24	0.7666667	-0.5564700	1.4720900	-0.2662700	-0.5414700	1.4698600	-0.0890900	-0.5158300	1.2378500	0.0507000	-0.4292100	1.0560200	0.2209300	-0.5604600	1.4817500	-0.4402700	-0.5513300	1.2406700	-0.5933100	-0.4521200	1.0416500	-0.7082500	-0.4684600	0.8983500	-0.2696700	-0.4951900	0.8964900	-0.1476000	-0.5044300	0.4739500	-0.1505500	-0.5498100	0.1040900	-0.1445700	-0.4472700	0.8939700	-0.3853300	-0.4874100	0.4843600	-0.3781100	-0.5595100	0.0973800	-0.3913700	-0.3796200	0.0448700	-0.4187700	-0.4218700	0.0476000	-0.4701000	-0.5981100	0.0645500	-0.3607700	-0.4037600	0.0444000	-0.1325400	-0.4237800	0.0608100	-0.0774700	-0.5961800	0.0499800	-0.1572700
25	0.8000000	-0.5734900	1.4734300	-0.2627900	-0.5416300	1.4694800	-0.0890400	-0.5306000	1.2377200	0.0557500	-0.4292200	1.0562000	0.2209200	-0.5602300	1.4817200	-0.4403200	-0.5516200	1.2406300	-0.5934800	-0.4351000	1.0427700	-0.7090800	-0.4683900	0.8982700	-0.2696700	-0.4951100	0.8965300	-0.1476000	-0.5225200	0.4744500	-0.1466700	-0.5497900	0.1041500	-0.1445800	-0.4464700	0.8940600	-0.3854600	-0.4873500	0.4843300	-0.3781300	-0.5597700	0.0973800	-0.3913400	-0.3800000	0.0448300	-0.4187400	-0.4395700	0.0397000	-0.4677800	-0.5962700	0.0600800	-0.3600600	-0.4040400	0.0443600	-0.1325100	-0.4240400	0.0607100	-0.0774300	-0.5960100	0.0502200	-0.1573200
26	0.8333333	-0.5734000	1.4734300	-0.2627900	-0.5416700	1.4698400	-0.0890400	-0.5158500	1.2378000	0.0507100	-0.4293700	1.0517200	0.2211400	-0.5604500	1.4817500	-0.4402700	-0.5513200	1.2407000	-0.5933300	-0.4520600	1.0416700	-0.7082600	-0.4684100	0.8983800	-0.2696700	-0.4951500	0.8965300	-0.1476000	-0.5225300	0.4742500	-0.1466400	-0.5498300	0.1042000	-0.1445900	-0.4471900	0.8940600	-0.3853300	-0.4876500	0.4842700	-0.3781100	-0.5595400	0.0972900	-0.3913300	-0.3797700	0.0448000	-0.4187700	-0.4396100	0.0399200	-0.4677200	-0.5963400	0.0597700	-0.3599800	-0.4040100	0.0443900	-0.1325100	-0.4240100	0.0609200	-0.0774400	-0.5960500	0.0502400	-0.1573300
27	0.8666667	-0.5734100	1.4734200	-0.2627700	-0.5416000	1.4694400	-0.0890000	-0.5148300	1.2377900	0.0507000	-0.4293600	1.0518800	0.2211300	-0.5600800	1.4817400	-0.4403000	-0.5516700	1.2406500	-0.5934900	-0.4524900	1.0415900	-0.7082400	-0.4683900	0.8982700	-0.2696800	-0.4951500	0.8965200	-0.1476100	-0.5217700	0.4695300	-0.1462400	-0.5498100	0.1041400	-0.1445800	-0.4464500	0.8940800	-0.3854600	-0.4874100	0.4843300	-0.3781500	-0.5597700	0.0973500	-0.3913200	-0.3798600	0.0449000	-0.4187900	-0.4394700	0.0397400	-0.4678000	-0.5963300	0.0600400	-0.3600300	-0.4039200	0.0443800	-0.1324800	-0.4239600	0.0607700	-0.0774300	-0.5960700	0.0501900	-0.1573300
28	0.9000000	-0.5734500	1.4734300	-0.2627900	-0.5417200	1.4698500	-0.0890600	-0.5156100	1.2377900	0.0507000	-0.4294600	1.0517200	0.2211000	-0.5605200	1.4817500	-0.4402500	-0.5512800	1.2407200	-0.5933000	-0.4520200	1.0416800	-0.7082500	-0.4683700	0.8983800	-0.2696900	-0.4951400	0.8965300	-0.1476100	-0.5217700	0.4693400	-0.1462300	-0.5498900	0.1041900	-0.1446100	-0.4471300	0.8940600	-0.3853400	-0.4876500	0.4842900	-0.3781100	-0.5595500	0.0972800	-0.3913300	-0.3797700	0.0448000	-0.4187800	-0.4396200	0.0399200	-0.4677200	-0.5963400	0.0597700	-0.3599800	-0.4039400	0.0443600	-0.1325000	-0.4239800	0.0609000	-0.0774500	-0.5961800	0.0502100	-0.1573600
29	0.9333333	-0.5735400	1.4734200	-0.2627700	-0.5417000	1.4694600	-0.0890200	-0.5148300	1.2377800	0.0506200	-0.4300200	1.0567200	0.2209400	-0.5601600	1.4817000	-0.4402800	-0.5514900	1.2455700	-0.5931600	-0.4524300	1.0416300	-0.7082200	-0.4684100	0.8982600	-0.2696800	-0.4951700	0.8965000	-0.1476000	-0.5225500	0.4744800	-0.1466700	-0.5498500	0.1041300	-0.1446100	-0.4464400	0.8940400	-0.3854600	-0.4874000	0.4843100	-0.3781600	-0.5596400	0.0973900	-0.3913300	-0.3798000	0.0449000	-0.4187800	-0.4217700	0.0473200	-0.4701700	-0.5961900	0.0600900	-0.3600300	-0.4038600	0.0443700	-0.1325000	-0.4239300	0.0607200	-0.0774600	-0.5962400	0.0501700	-0.1573700
30	0.9666667	-0.5735400	1.4734200	-0.2627700	-0.5418200	1.4698600	-0.0890700	-0.5157000	1.2377800	0.0506200	-0.4295300	1.0516400	0.2211000	-0.5605100	1.4817400	-0.4402100	-0.5511400	1.2456400	-0.5929600	-0.4520600	1.0416900	-0.7082700	-0.4683400	0.8983700	-0.2696800	-0.4951100	0.8965100	-0.1476200	-0.5225200	0.4743100	-0.1466200	-0.5498900	0.1041900	-0.1446100	-0.4470900	0.8940400	-0.3853200	-0.4876900	0.4842000	-0.3781200	-0.5594200	0.0973200	-0.3913300	-0.3797800	0.0447800	-0.4187700	-0.4396000	0.0399100	-0.4677200	-0.5961300	0.0598100	-0.3599900	-0.4039900	0.0442800	-0.1324600	-0.4240900	0.0608300	-0.0774100	-0.5962500	0.0502200	-0.1573700
31	1.0000000	-0.5735800	1.4734400	-0.2628000	-0.5427700	1.4743000	-0.0894500	-0.5148300	1.2377800	0.0505800	-0.4295000	1.0518600	0.2210700	-0.5601600	1.4817000	-0.4402600	-0.5695700	1.2456400	-0.5915300	-0.4525000	1.0415900	-0.7082500	-0.4683000	0.8983000	-0.2696800	-0.4950600	0.8965300	-0.1476100	-0.5225000	0.4745200	-0.1466600	-0.5498700	0.1041000	-0.1446000	-0.4463500	0.8941200	-0.3854300	-0.4874400	0.4843000	-0.3781600	-0.5596400	0.0974000	-0.3913400	-0.3798200	0.0448900	-0.4187900	-0.4394000	0.0397300	-0.4678000	-0.5961400	0.0600600	-0.3600400	-0.4039500	0.0443000	-0.1324700	-0.4240400	0.0606700	-0.0774100	-0.5962600	0.0501400	-0.1573600
32	1.0333333	-0.5735700	1.4734200	-0.2628000	-0.5418500	1.4698500	-0.0891000	-0.5158000	1.2377800	0.0505900	-0.4300200	1.0564800	0.2209300	-0.5605500	1.4817300	-0.4402200	-0.5692200	1.2457100	-0.5913500	-0.4521000	1.0416900	-0.7082300	-0.4683200	0.8984000	-0.2696800	-0.4950900	0.8965400	-0.1476200	-0.5224000	0.4743600	-0.1466000	-0.5499000	0.1041700	-0.1446200	-0.4470600	0.8940800	-0.3853100	-0.4876600	0.4842600	-0.3781100	-0.5594600	0.0973100	-0.3913600	-0.3798300	0.0447500	-0.4187900	-0.4396300	0.0398900	-0.4677300	-0.5961300	0.0597900	-0.3600000	-0.4039200	0.0443300	-0.1324700	-0.4240100	0.0608600	-0.0774100	-0.5963400	0.0501700	-0.1573900
33	1.0666667	-0.5736100	1.4734300	-0.2628000	-0.5418200	1.4694900	-0.0890800	-0.5149900	1.2377800	0.0505800	-0.4300100	1.0567000	0.2209100	-0.5601600	1.4817100	-0.4402700	-0.5696000	1.2456400	-0.5915400	-0.4525100	1.0416000	-0.7082200	-0.4683000	0.8983100	-0.2696700	-0.4950700	0.8965500	-0.1476000	-0.5224100	0.4745800	-0.1466200	-0.5499000	0.1041000	-0.1446100	-0.4461300	0.8893000	-0.3855100	-0.4874400	0.4843500	-0.3781500	-0.5596400	0.0974000	-0.3913500	-0.3799000	0.0448400	-0.4188100	-0.4394400	0.0396800	-0.4678200	-0.5961200	0.0600700	-0.3600400	-0.4039600	0.0443100	-0.1324600	-0.4240600	0.0606800	-0.0774100	-0.5963400	0.0501400	-0.1574000
34	1.1000000	-0.5736000	1.4734200	-0.2628000	-0.5419100	1.4698500	-0.0891000	-0.5159200	1.2377900	0.0506000	-0.4300100	1.0565100	0.2209200	-0.5605300	1.4817400	-0.4402200	-0.5691400	1.2456700	-0.5913300	-0.4521400	1.0416400	-0.7082700	-0.4682800	0.8984000	-0.2696800	-0.4951100	0.8965400	-0.1476200	-0.5224500	0.4743900	-0.1465800	-0.5498900	0.1042100	-0.1446300	-0.4469900	0.8940800	-0.3853000	-0.4875700	0.4842900	-0.3781000	-0.5401600	0.1049100	-0.3943600	-0.3798300	0.0447500	-0.4188400	-0.4220200	0.0475100	-0.4701300	-0.5960900	0.0598000	-0.3600000	-0.4039400	0.0443400	-0.1324500	-0.4240400	0.0608800	-0.0774000	-0.5963000	0.0502000	-0.1574100
35	1.1333333	-0.5735900	1.4734200	-0.2627900	-0.5427400	1.4742900	-0.0894100	-0.5149800	1.2377300	0.0506100	-0.4294100	1.0518500	0.2210600	-0.5602100	1.4816800	-0.4403000	-0.5697000	1.2456400	-0.5916000	-0.4524700	1.0415400	-0.7082000	-0.4682600	0.8983400	-0.2696500	-0.4950800	0.8965600	-0.1475900	-0.5223700	0.4746300	-0.1466000	-0.5498600	0.1041400	-0.1446200	-0.4462500	0.8941600	-0.3853700	-0.4874400	0.4843100	-0.3781800	-0.5596100	0.0974200	-0.3913900	-0.3794900	0.0507700	-0.4181200	-0.4208900	0.0533700	-0.4693000	-0.5961300	0.0600400	-0.3600600	-0.4039500	0.0443200	-0.1324500	-0.4240500	0.0606900	-0.0774100	-0.5962900	0.0501800	-0.1574100
36	1.1666667	-0.5735900	1.4734300	-0.2627900	-0.5428000	1.4746500	-0.0894400	-0.5158600	1.2377200	0.0506300	-0.4294100	1.0516500	0.2210600	-0.5606300	1.4817400	-0.4402400	-0.5692200	1.2457000	-0.5913600	-0.4520900	1.0416600	-0.7082200	-0.4682600	0.8984100	-0.2696400	-0.4951300	0.8965400	-0.1475900	-0.5224700	0.4743200	-0.1466000	-0.5498400	0.1042000	-0.1446200	-0.4466700	0.8892700	-0.3853500	-0.4877400	0.4842200	-0.3781600	-0.5594200	0.0973300	-0.3913600	-0.3793600	0.0506800	-0.4180800	-0.4220500	0.0475200	-0.4701300	-0.5960700	0.0597800	-0.3599900	-0.4039600	0.0443200	-0.1324600	-0.4240500	0.0608500	-0.0774100	-0.5962300	0.0502200	-0.1573800
37	1.2000000	-0.5735600	1.4734400	-0.2628100	-0.5426600	1.4742700	-0.0894400	-0.5148600	1.2376900	0.0505800	-0.4293700	1.0518900	0.2210500	-0.5601500	1.4817200	-0.4403200	-0.5696700	1.2456100	-0.5915400	-0.4524600	1.0415500	-0.7082000	-0.4682000	0.8983100	-0.2696500	-0.4950100	0.8965400	-0.1475900	-0.5223300	0.4745300	-0.1466500	-0.5498800	0.1040600	-0.1446000	-0.4462200	0.8941200	-0.3853600	-0.4876300	0.4843000	-0.3781900	-0.5596900	0.0973900	-0.3913500	-0.3793100	0.0508100	-0.4181400	-0.4207700	0.0534400	-0.4693200	-0.5962000	0.0599800	-0.3600200	-0.4041000	0.0443000	-0.1324200	-0.4240700	0.0605700	-0.0773900	-0.5961500	0.0500200	-0.1573900
38	1.2333333	-0.5736000	1.4734400	-0.2628200	-0.5428100	1.4746500	-0.0894900	-0.5157700	1.2377200	0.0505800	-0.4293200	1.0516700	0.2210600	-0.5605600	1.4817500	-0.4402700	-0.5517200	1.2457000	-0.5830300	-0.4521500	1.0416100	-0.7082600	-0.4682100	0.8983500	-0.2696500	-0.4950600	0.8964900	-0.1476000	-0.5223500	0.4742600	-0.1466300	-0.5498700	0.1041300	-0.1446000	-0.4466300	0.8892200	-0.3853600	-0.4878500	0.4842200	-0.3781500	-0.5595300	0.0972600	-0.3913400	-0.3791300	0.0507200	-0.4180900	-0.4219500	0.0476300	-0.4701600	-0.5962000	0.0597200	-0.3599800	-0.4040600	0.0442800	-0.1324200	-0.4240500	0.0607400	-0.0773800	-0.5962000	0.0500300	-0.1573700
